<?xml version="1.0" encoding="UTF-8"?>
<svg version="1.1" xmlns="http://www.w3.org/2000/svg" width="467" height="118">
<path d="M0 0 C154.11 0 308.22 0 467 0 C467 38.94 467 77.88 467 118 C312.89 118 158.78 118 0 118 C0 79.06 0 40.12 0 0 Z " fill="#FEFEFE" transform="translate(0,0)"/>
<path d="M0 0 C1.65 0 3.3 0 5 0 C5 10.56 5 21.12 5 32 C3.35 32 1.7 32 0 32 C-0.33 31.34 -0.66 30.68 -1 30 C-1.99 30.66 -2.98 31.32 -4 32 C-9.17580071 32.57508897 -9.17580071 32.57508897 -12 32 C-15.74636811 28.34969261 -17.17250261 25.39031846 -17.375 20.25 C-17.3533442 16.50896062 -17.02882688 14.3433025 -14.625 11.4375 C-11.75054321 8.76836155 -10.96435708 8.08385714 -7.125 7.75 C-4 8 -4 8 0 11 C0 7.37 0 3.74 0 0 Z " fill="#090909" transform="translate(201,43)"/>
<path d="M0 0 C1.65 0 3.3 0 5 0 C6.33333333 4.66666667 7.66666667 9.33333333 9 14 C10.32 9.38 11.64 4.76 13 0 C14.98 0 16.96 0 19 0 C19.508783 1.55966218 20.00663469 3.12289241 20.5 4.6875 C20.7784375 5.55761719 21.056875 6.42773438 21.34375 7.32421875 C21.99850805 9.99391677 22.11831495 12.26396684 22 15 C22.66 15 23.32 15 24 15 C24.09087891 13.87851563 24.09087891 13.87851563 24.18359375 12.734375 C24.26738281 11.74953125 24.35117187 10.7646875 24.4375 9.75 C24.51871094 8.77546875 24.59992188 7.8009375 24.68359375 6.796875 C24.95074584 4.43538247 25.35371968 2.28098935 26 0 C27.65 0 29.3 0 31 0 C30.32545897 7.8246759 28.73123042 15.34556614 27 23 C24.69 23 22.38 23 20 23 C18.68 18.38 17.36 13.76 16 9 C14.61216415 12.46958962 13.62025646 15.24591552 12.875 18.8125 C12.62363281 19.99779297 12.62363281 19.99779297 12.3671875 21.20703125 C12.24601563 21.79871094 12.12484375 22.39039062 12 23 C9.69 23 7.38 23 5 23 C4.34964629 20.48025747 3.70462507 17.95934065 3.0625 15.4375 C2.88009766 14.73302734 2.69769531 14.02855469 2.50976562 13.30273438 C1.3884486 8.87862902 0.56543671 4.52944562 0 0 Z " fill="#101010" transform="translate(238,52)"/>
<path d="M0 0 C6.93 0 13.86 0 21 0 C21 1.65 21 3.3 21 5 C16.05 5 11.1 5 6 5 C6 7.31 6 9.62 6 12 C10.29 12 14.58 12 19 12 C19 13.65 19 15.3 19 17 C15.04 17 11.08 17 7 17 C7 19.97 7 22.94 7 26 C11.62 26 16.24 26 21 26 C21 27.65 21 29.3 21 31 C14.07 31 7.14 31 0 31 C0 20.77 0 10.54 0 0 Z " fill="#141414" transform="translate(159,44)"/>
<path d="M0 0 C1.98 0 3.96 0 6 0 C6.33 5.61 6.66 11.22 7 17 C8.98 17.33 10.96 17.66 13 18 C14.18695553 14.43913342 14.35095418 11.02668976 14.5625 7.3125 C14.60568359 6.61060547 14.64886719 5.90871094 14.69335938 5.18554688 C14.7991736 3.45724794 14.90006581 1.7286489 15 0 C16.65 0 18.3 0 20 0 C20 7.59 20 15.18 20 23 C18.35 23 16.7 23 15 23 C14.67 22.34 14.34 21.68 14 21 C13.01 21.66 12.02 22.32 11 23 C9.0625 23.3359375 9.0625 23.3359375 7 23.375 C6.319375 23.40335938 5.63875 23.43171875 4.9375 23.4609375 C3 23 3 23 1.26171875 21.5859375 C-0.70130012 17.56266044 -0.31447659 13.65836677 -0.1875 9.25 C-0.17396484 8.36183594 -0.16042969 7.47367188 -0.14648438 6.55859375 C-0.11121309 4.37177422 -0.06192752 2.18620034 0 0 Z " fill="#090909" transform="translate(213,52)"/>
<path d="M0 0 C2.75 -0.375 2.75 -0.375 6 0 C8.375 3 8.375 3 10 6 C10.53625 5.01 11.0725 4.02 11.625 3 C12.40875 2.01 13.1925 1.02 14 0 C17.25 -0.375 17.25 -0.375 20 0 C18.152 4.752 18.152 4.752 16.8125 6.9375 C15.60389605 10.00549465 16.14569252 11.82685794 17 15 C18.21818101 17.73227645 19.56732353 20.37453708 21 23 C18.69 23 16.38 23 14 23 C11 17.25 11 17.25 11 15 C10.34 15 9.68 15 9 15 C8.690625 15.94875 8.38125 16.8975 8.0625 17.875 C7 21 7 21 6 23 C4.02 23 2.04 23 0 23 C0.96336079 19.81349891 1.83064716 17.24193263 3.75 14.5 C5.32079572 12.00794961 5.32079572 12.00794961 4.375 9.0625 C2.99728547 5.993954 1.56079424 2.9796981 0 0 Z " fill="#0D0D0D" transform="translate(290,52)"/>
<path d="M0 0 C4.66666667 0 9.33333333 0 14 0 C14 1.65 14 3.3 14 5 C13.030625 5.12375 12.06125 5.2475 11.0625 5.375 C9.5465625 5.684375 9.5465625 5.684375 8 6 C6.47893366 9.04213267 6.62570662 12.28047572 6.4375 15.625 C6.39431641 16.33140625 6.35113281 17.0378125 6.30664062 17.765625 C6.20055249 19.51018537 6.09977111 21.25506697 6 23 C4.02 23 2.04 23 0 23 C0 15.41 0 7.82 0 0 Z " fill="#0C0C0C" transform="translate(274,52)"/>
<path d="M0 0 C5 5 5 5 6.3125 6.6875 C10.37966899 9.85085366 15.59197186 10.23185843 20.5625 9.875 C26.42559013 9.00564526 30.45940567 6.73810642 34.4375 2.25 C34.953125 1.5075 35.46875 0.765 36 0 C38.475 0.495 38.475 0.495 41 1 C39.52926948 6.22926405 35.99266851 10.41637993 32 14 C31.01 14 30.02 14 29 14 C29 13.34 29 12.68 29 12 C28.05125 12.350625 27.1025 12.70125 26.125 13.0625 C20.12074176 14.75538417 14.30212194 14.15106097 8.75 11.375 C5.47573217 8.54722324 2.47532127 5.56376042 0 2 C0 1.34 0 0.68 0 0 Z " fill="#E1E1E1" transform="translate(86,67)"/>
<path d="M0 0 C8.63875827 2.61171762 12.6512284 6.12438958 17 14 C17 14.66 17 15.32 17 16 C14.25 16.3125 14.25 16.3125 11 16 C9.63360658 14.3603279 8.3050581 12.68889872 7 11 C1.41810999 6.91791688 -4.23032483 6.08825924 -11 7 C-16.57409977 8.82230185 -19.51892821 12.49435744 -23 17 C-23.33 16.34 -23.66 15.68 -24 15 C-19.50927919 9.0508779 -15.30903701 5.0145049 -8 3 C-4.125 2.75 -4.125 2.75 -1 3 C-0.01 3 0.98 3 2 3 C1.34 2.01 0.68 1.02 0 0 Z " fill="#E0E0E0" transform="translate(110,34)"/>
<path d="M0 0 C6.52307692 0.61538462 6.52307692 0.61538462 8.9375 2.5625 C9.288125 3.036875 9.63875 3.51125 10 4 C10.7425 3.34 11.485 2.68 12.25 2 C15 0 15 0 19 0 C17.25 4.875 17.25 4.875 15 6 C16.37154504 8.95409701 17.98863724 11.44008376 20 14 C14.46153846 14.36923077 14.46153846 14.36923077 12.125 12.5 C11.75375 12.005 11.3825 11.51 11 11 C8.3094472 12.22007944 8.3094472 12.22007944 6 14 C4.00041636 14.04080783 1.99954746 14.04254356 0 14 C1.98 11.36 3.96 8.72 6 6 C5.01 5.67 4.02 5.34 3 5 C1.3125 3.5625 1.3125 3.5625 0 2 C0 1.34 0 0.68 0 0 Z " fill="#EEEEEE" transform="translate(131,52)"/>
<path d="M0 0 C2.46324069 3.69486103 2.38991688 5.63293092 2 10 C0.875 11.9375 0.875 11.9375 -1 13 C-4.0625 13.375 -4.0625 13.375 -7 13 C-9.5406327 9.18905096 -9.58489947 6.46566106 -9 2 C-6.80968037 -2.01558599 -4.00554886 -1.19314221 0 0 Z " fill="#ECECEC" transform="translate(199,57)"/>
<path d="M0 0 C-0.43639406 2.9456599 -1.14845127 4.18443946 -3.0625 6.5625 C-5.31112206 8.87245668 -5.31112206 8.87245668 -5 12 C-5.66 12 -6.32 12 -7 12 C-7.875 9.9375 -7.875 9.9375 -8 7 C-3.55991736 0 -3.55991736 0 0 0 Z " fill="#F7F7F7" transform="translate(92,40)"/>
<path d="M0 0 C0.33 0.99 0.66 1.98 1 3 C-0.65 3.66 -2.3 4.32 -4 5 C-4.99 3.68 -5.98 2.36 -7 1 C-2.25 0 -2.25 0 0 0 Z " fill="#F5F5F5" transform="translate(115,79)"/>
</svg>
