<?xml version="1.0" encoding="UTF-8"?>
<svg version="1.1" xmlns="http://www.w3.org/2000/svg" width="451" height="114">
<path d="M0 0 C148.83 0 297.66 0 451 0 C451 37.62 451 75.24 451 114 C302.17 114 153.34 114 0 114 C0 76.38 0 38.76 0 0 Z " fill="#FEFEFE" transform="translate(0,0)"/>
<path d="M0 0 C2.31279611 1.15639806 4.17409828 2.17409828 6 4 C6.46580407 9.35674677 6.46580407 9.35674677 4.6875 11.8125 C1.46610451 14.07940793 -1.38462474 14.11188799 -5.1875 14.0625 C-6.53908203 14.04896484 -6.53908203 14.04896484 -7.91796875 14.03515625 C-8.60503906 14.02355469 -9.29210937 14.01195313 -10 14 C-10.08082094 12.04233719 -10.13910778 10.08373272 -10.1875 8.125 C-10.22230469 7.03445312 -10.25710937 5.94390625 -10.29296875 4.8203125 C-10.19628906 3.88960937 -10.09960938 2.95890625 -10 2 C-6.27420911 -0.48386059 -4.41288598 -0.3804212 0 0 Z " fill="#F5F5F5" transform="translate(122,50)"/>
<path d="M0 0 C6.46312469 0.99432688 10.75543796 5.54459667 14.8984375 10.21875 C16 12 16 12 16 16 C13.875 16.4375 13.875 16.4375 11 16 C9.3469312 14.35125861 7.99387923 12.61654916 6.625 10.7265625 C3.87685724 7.80666082 1.00987895 7.11689043 -2.90234375 6.6640625 C-11.18920736 6.55741046 -14.83165095 7.96940526 -20.875 13.75 C-21.926875 14.86375 -21.926875 14.86375 -23 16 C-21.6033994 10.72395329 -18.26177082 8.08417625 -14 5 C-9.41010371 2.39492373 -4.17201649 2.38162452 1 2 C0.67 1.34 0.34 0.68 0 0 Z " fill="#E1E1E1" transform="translate(106,33)"/>
<path d="M0 0 C5.53846154 -0.36923077 5.53846154 -0.36923077 7.875 1.5 C8.24625 1.995 8.6175 2.49 9 3 C9.37125 2.505 9.7425 2.01 10.125 1.5 C12.74694393 -0.59755514 14.73842472 -0.21743835 18 0 C16.68 1.65 15.36 3.3 14 5 C14.28875 5.5775 14.5775 6.155 14.875 6.75 C15.91666667 8.83333333 16.95833333 10.91666667 18 13 C13.44615385 13.36923077 13.44615385 13.36923077 11.1875 11.5 C10.795625 11.005 10.40375 10.51 10 10 C7.3094472 11.22007944 7.3094472 11.22007944 5 13 C3.33382885 13.04063832 1.66611905 13.042721 0 13 C1.33333333 10.33333333 2.66666667 7.66666667 4 5 C2.68 3.35 1.36 1.7 0 0 Z " fill="#EEEEEE" transform="translate(127,51)"/>
<path d="M0 0 C1.11375 0.1546875 1.11375 0.1546875 2.25 0.3125 C1.93444225 5.51920288 -1.05128397 8.88980756 -4.75 12.3125 C-5.74 12.6425 -6.73 12.9725 -7.75 13.3125 C-8.08 12.6525 -8.41 11.9925 -8.75 11.3125 C-9.74 11.8075 -9.74 11.8075 -10.75 12.3125 C-15.98416365 14.05722122 -20.62267194 13.98631135 -25.6875 11.9375 C-28.75 10.3125 -28.75 10.3125 -29.75 8.3125 C-28.76 8.4775 -27.77 8.6425 -26.75 8.8125 C-18.99041832 9.85856031 -13.32711134 9.91794933 -6.75 5.3125 C-6.028125 4.405 -5.30625 3.4975 -4.5625 2.5625 C-2.75 0.3125 -2.75 0.3125 0 0 Z " fill="#E4E4E4" transform="translate(119.75,64.6875)"/>
</svg>
