<?xml version="1.0" encoding="UTF-8"?>
<svg version="1.1" xmlns="http://www.w3.org/2000/svg" width="500" height="500">
<path d="M0 0 C1.20269531 -0.01160156 2.40539062 -0.02320313 3.64453125 -0.03515625 C12.26851764 -0.00736682 20.14380457 1.31412331 28.5 3.375 C29.46446045 3.58721191 30.4289209 3.79942383 31.42260742 4.01806641 C46.4315003 7.35005557 59.2314569 16.56301136 71.5 25.375 C72.49 26.035 73.48 26.695 74.5 27.375 C74.5 28.035 74.5 28.695 74.5 29.375 C75.16 29.375 75.82 29.375 76.5 29.375 C76.5 30.035 76.5 30.695 76.5 31.375 C77.16 31.375 77.82 31.375 78.5 31.375 C88.70183563 40.38560333 99.6997989 56.27085829 103.5 69.375 C103.21734635 71.05100591 102.89032609 72.72075261 102.5 74.375 C99.10533263 74.60815639 95.71272038 74.74964625 92.3125 74.875 C91.35279297 74.94203125 90.39308594 75.0090625 89.40429688 75.078125 C86.56597308 75.15669452 84.24226421 75.12512229 81.5 74.375 C79.12520426 71.99308496 77.90830329 69.39289733 76.5 66.375 C75.736875 65.42625 74.97375 64.4775 74.1875 63.5 C72.5 61.375 72.5 61.375 72.5 59.375 C71.84 59.375 71.18 59.375 70.5 59.375 C69.45244255 58.22923404 68.46190283 57.0310644 67.5 55.8125 C63.96731374 51.60763242 60.04602943 48.77111424 55.44140625 45.8203125 C54.80074219 45.34335938 54.16007813 44.86640625 53.5 44.375 C53.5 43.715 53.5 43.055 53.5 42.375 C52.93023437 42.25769531 52.36046875 42.14039063 51.7734375 42.01953125 C49.30730173 41.32036905 47.36828654 40.29898729 45.125 39.0625 C25.81368974 29.25042041 1.62029337 28.86997698 -18.87109375 35.078125 C-27.61792253 38.20400999 -35.87647218 42.33845401 -43.046875 48.30859375 C-44.5 49.375 -44.5 49.375 -46.5 49.375 C-46.768125 49.973125 -47.03625 50.57125 -47.3125 51.1875 C-48.49917406 53.37347854 -49.59599113 54.78832594 -51.5 56.375 C-52.16 56.375 -52.82 56.375 -53.5 56.375 C-53.78875 56.973125 -54.0775 57.57125 -54.375 58.1875 C-55.5 60.375 -55.5 60.375 -57.5 63.375 C-58.16 63.375 -58.82 63.375 -59.5 63.375 C-59.768125 64.09042969 -60.03625 64.80585938 -60.3125 65.54296875 C-61.51731307 68.41628939 -62.91237112 71.00837626 -64.5 73.6875 C-65.2734375 75.01201172 -65.2734375 75.01201172 -66.0625 76.36328125 C-66.7740625 77.35908203 -66.7740625 77.35908203 -67.5 78.375 C-68.16 78.375 -68.82 78.375 -69.5 78.375 C-68.79423751 74.51683173 -67.05200841 71.42558504 -65.1875 68 C-64.59324219 66.89914063 -63.99898437 65.79828125 -63.38671875 64.6640625 C-61.53419596 61.43461283 -59.69944743 58.37713237 -57.5 55.375 C-56.84 55.375 -56.18 55.375 -55.5 55.375 C-55.273125 54.818125 -55.04625 54.26125 -54.8125 53.6875 C-52.05957767 48.83711303 -47.48167265 45.43362315 -43.24609375 41.90234375 C-41.42558883 40.35664889 -41.42558883 40.35664889 -39.625 38.40625 C-32.20072085 31.30951258 -21.99154278 27.77666701 -12.5 24.375 C-11.68789062 24.03339844 -10.87578125 23.69179687 -10.0390625 23.33984375 C9.50109074 15.91458552 33.18609235 18.11978316 52.25 25.875 C54.0115542 26.68362305 55.76308137 27.5147337 57.5 28.375 C58.27859375 28.75011719 59.0571875 29.12523437 59.859375 29.51171875 C61.75220484 30.44086332 63.62759173 31.40536001 65.5 32.375 C66.83239371 33.04354262 68.16549811 33.71067559 69.5 34.375 C69.5 35.035 69.5 35.695 69.5 36.375 C70.54607422 36.70371094 70.54607422 36.70371094 71.61328125 37.0390625 C75.20919007 38.70320434 77.83241932 41.06784757 80.6875 43.75 C81.22052734 44.23210937 81.75355469 44.71421875 82.30273438 45.2109375 C85.00503178 47.71268704 87.16118914 49.90887617 88.5 53.375 C88.5 48.64864536 85.40611097 46.35877763 82.3125 43 C79.14471745 40.04340296 75.78061115 37.49173023 72.29296875 34.92578125 C71.70128906 34.41402344 71.10960937 33.90226562 70.5 33.375 C70.5 32.715 70.5 32.055 70.5 31.375 C69.901875 31.25511719 69.30375 31.13523438 68.6875 31.01171875 C65.89026598 30.19752385 63.9826006 28.54202189 61.66015625 26.8359375 C41.65792834 13.30821013 15.26690598 10.79926567 -8.109375 14.6953125 C-18.85956562 16.85030463 -27.85689331 20.26950362 -37.3203125 25.66796875 C-39.83595587 27.01850456 -41.72185299 27.9119755 -44.5 28.375 C-44.5 29.035 -44.5 29.695 -44.5 30.375 C-45.82 30.705 -47.14 31.035 -48.5 31.375 C-48.5 32.035 -48.5 32.695 -48.5 33.375 C-50.15 34.035 -51.8 34.695 -53.5 35.375 C-53.5 36.035 -53.5 36.695 -53.5 37.375 C-55.00390625 38.78515625 -55.00390625 38.78515625 -57.0625 40.4375 C-61.5911178 44.28602502 -65.01994215 48.58251158 -68.5 53.375 C-68.99886719 54.04273438 -69.49773437 54.71046875 -70.01171875 55.3984375 C-71.95205876 58.0337417 -73.45871652 60.25114956 -74.5 63.375 C-75.16 63.375 -75.82 63.375 -76.5 63.375 C-76.61601563 64.08398438 -76.73203125 64.79296875 -76.8515625 65.5234375 C-77.54409068 68.56889274 -78.60668049 71.14820281 -79.875 74 C-89.79737184 97.50486931 -89.99150762 124.63144668 -80.5 148.375 C-75.18256505 160.43055863 -65.96389388 179.14305306 -53.5 185.375 C-53.5 186.035 -53.5 186.695 -53.5 187.375 C-51.85 188.035 -50.2 188.695 -48.5 189.375 C-48.5 190.035 -48.5 190.695 -48.5 191.375 C-47.81292969 191.62507812 -47.12585938 191.87515625 -46.41796875 192.1328125 C-43.0415701 193.5701549 -39.95911179 195.37982357 -36.8125 197.25 C-14.19456536 210.36009599 12.45500436 212.4520293 37.72265625 206.6328125 C47.79861607 203.86590251 57.21701237 199.04017496 65.81640625 193.125 C68.5 191.375 68.5 191.375 70.5 191.375 C70.5 190.715 70.5 190.055 70.5 189.375 C71.93763461 188.17747138 73.42779115 187.04278152 74.9375 185.9375 C80.73283648 181.44838772 85.07851008 176.18488048 89.5 170.375 C88.48691139 171.38808861 87.49156737 172.41881623 86.49609375 173.44921875 C69.01617976 191.30274922 46.13668024 202.97572829 20.78051758 203.86865234 C11.80851085 203.89586244 3.21620605 202.38571277 -5.5 200.375 C-6.96179688 200.06755859 -6.96179688 200.06755859 -8.453125 199.75390625 C-28.41301189 195.05574574 -49.58008484 180.03589774 -60.57910156 162.67138672 C-62.40470609 159.6247195 -64.14012942 156.53454147 -65.8359375 153.4140625 C-67.46828526 150.32840178 -67.46828526 150.32840178 -69.5 147.375 C-69.5 146.385 -69.5 145.395 -69.5 144.375 C-65.41371313 145.73709562 -64.88591369 147.68414115 -62.75 151.375 C-57.47542106 161.21196183 -57.47542106 161.21196183 -49.5 168.375 C-49.5 169.035 -49.5 169.695 -49.5 170.375 C-48.62988281 170.77138672 -48.62988281 170.77138672 -47.7421875 171.17578125 C-45.40821232 172.42409202 -43.63892396 173.85027282 -41.625 175.5625 C-25.60936932 188.14433752 -6.4589472 191.98570492 13.5 191.375 C14.45777344 191.34664062 15.41554688 191.31828125 16.40234375 191.2890625 C27.96871185 190.65070841 37.90765471 187.03358914 48.0390625 181.546875 C50.5 180.375 50.5 180.375 53.5 180.375 C53.5 179.715 53.5 179.055 53.5 178.375 C58.91176471 174.375 58.91176471 174.375 61.5 174.375 C61.5 173.715 61.5 173.055 61.5 172.375 C63.14453125 170.7890625 63.14453125 170.7890625 65.3125 169 C67.56250857 167.13933718 69.40350285 165.50627297 71.13671875 163.1484375 C71.58660156 162.56320312 72.03648437 161.97796875 72.5 161.375 C73.16 161.375 73.82 161.375 74.5 161.375 C74.8403125 160.385 74.8403125 160.385 75.1875 159.375 C75.620625 158.385 76.05375 157.395 76.5 156.375 C76.77779297 155.70662109 77.05558594 155.03824219 77.34179688 154.34960938 C78.52679206 151.97744471 79.60063958 150.23689926 81.5 148.375 C85.14339719 147.3807677 88.57010356 147.61361032 92.3125 147.875 C93.29154297 147.91109375 94.27058594 147.9471875 95.27929688 147.984375 C97.69022119 148.07845985 100.09308437 148.20968549 102.5 148.375 C103.0689764 159.57293981 96.76694664 167.73111709 90.6875 176.6875 C90.11044312 177.54154419 90.11044312 177.54154419 89.52172852 178.4128418 C88.56867021 179.77317916 87.54044295 181.08027364 86.5 182.375 C85.84 182.375 85.18 182.375 84.5 182.375 C84.2628125 182.93703125 84.025625 183.4990625 83.78125 184.078125 C82.21052303 186.89394042 80.28528536 188.85455416 78 191.125 C76.80890625 192.32382812 76.80890625 192.32382812 75.59375 193.546875 C73.5 195.375 73.5 195.375 71.5 195.375 C71.5 196.035 71.5 196.695 71.5 197.375 C69.11936841 199.22391692 66.74355776 200.94001212 64.25 202.625 C63.5192627 203.12080566 62.78852539 203.61661133 62.03564453 204.12744141 C37.59612542 220.44719908 8.59984726 226.46630865 -20.4453125 221.49609375 C-34.9951172 218.48944853 -49.53875479 213.31208133 -61.5 204.375 C-63.35411196 203.12491885 -65.20827954 201.8749202 -67.0625 200.625 C-69.62890625 198.890625 -69.62890625 198.890625 -71.5 197.375 C-71.5 196.715 -71.5 196.055 -71.5 195.375 C-72.056875 195.148125 -72.61375 194.92125 -73.1875 194.6875 C-76.16159588 192.99949964 -78.22008865 190.90823483 -80.5 188.375 C-80.5 187.715 -80.5 187.055 -80.5 186.375 C-81.10199219 186.11589844 -81.70398438 185.85679687 -82.32421875 185.58984375 C-91.69469223 180.35785586 -98.19081397 164.78914508 -102.5 155.375 C-102.85964844 154.59769531 -103.21929687 153.82039062 -103.58984375 153.01953125 C-106.61355694 146.02505507 -108.11998015 138.8467051 -109.5 131.375 C-109.70753906 130.28832031 -109.91507812 129.20164062 -110.12890625 128.08203125 C-111.87358152 118.0653991 -114.24217685 102.85935369 -109.5 93.375 C-109.25418645 91.68984443 -109.02859058 90.00172422 -108.8125 88.3125 C-105.59197019 68.68372343 -95.90177944 52.55299477 -83.5 37.375 C-82.83484375 36.54355469 -82.1696875 35.71210938 -81.484375 34.85546875 C-76.23592843 28.52310386 -76.23592843 28.52310386 -71.5 27.375 C-71.5 26.715 -71.5 26.055 -71.5 25.375 C-69.49429029 23.70763949 -67.50196434 22.18729329 -65.375 20.6875 C-64.74263428 20.24124268 -64.11026855 19.79498535 -63.45874023 19.33520508 C-44.70772146 6.40627192 -22.71625288 -0.21912784 0 0 Z M90.5 53.375 C90.83 54.365 91.16 55.355 91.5 56.375 C91.5 55.385 91.5 54.395 91.5 53.375 C91.17 53.375 90.84 53.375 90.5 53.375 Z M93.5 57.375 C94.5 59.375 94.5 59.375 94.5 59.375 Z M95.5 60.375 C96.5 62.375 96.5 62.375 96.5 62.375 Z M97.5 63.375 C98.5 65.375 98.5 65.375 98.5 65.375 Z M99.5 67.375 C100.5 69.375 100.5 69.375 100.5 69.375 Z M97.5 157.375 C98.5 159.375 98.5 159.375 98.5 159.375 Z M95.5 160.375 C96.5 162.375 96.5 162.375 96.5 162.375 Z M93.5 163.375 C94.5 165.375 94.5 165.375 94.5 165.375 Z M91.5 166.375 C91.5 169.375 91.5 169.375 91.5 169.375 Z " fill="#F1F1F1" transform="translate(201.5,138.625)"/>
<path d="M0 0 C20.46 0 40.92 0 62 0 C60.26844667 4.32888332 58.86481615 6.73217429 56 10.25 C54.948125 11.55710938 54.948125 11.55710938 53.875 12.890625 C52 15 52 15 50 16 C47.67583704 16.08586809 45.34916693 16.10711043 43.0234375 16.09765625 C41.99556625 16.09553383 41.99556625 16.09553383 40.94692993 16.09336853 C38.75624239 16.08776675 36.5656567 16.07521406 34.375 16.0625 C32.89062648 16.05748522 31.40625135 16.05292228 29.921875 16.04882812 C26.28121685 16.03779677 22.64061836 16.02053099 19 16 C19 17.32 19 18.64 19 20 C32.53 20 46.06 20 60 20 C59.34 21.65 58.68 23.3 58 25 C57.34 25 56.68 25 56 25 C55.773125 25.70125 55.54625 26.4025 55.3125 27.125 C52.15812116 34.03459175 52.15812116 34.03459175 49 36 C43.88632589 36.7684663 38.83437564 36.56366933 33.6875 36.375 C32.26502997 36.34488282 30.84249902 36.31751005 29.41992188 36.29296875 C25.94534317 36.22706199 22.47305835 36.12364151 19 36 C19 37.65 19 39.3 19 41 C33.19 41 47.38 41 62 41 C61 45 61 45 60 47 C59.34 47 58.68 47 58 47 C57.731875 47.556875 57.46375 48.11375 57.1875 48.6875 C53.26849283 56.3192508 53.26849283 56.3192508 49 58 C46.70344543 58.24723816 46.70344543 58.24723816 44.15551758 58.24291992 C42.71931816 58.24753487 42.71931816 58.24753487 41.25410461 58.25224304 C39.7148658 58.24146477 39.7148658 58.24146477 38.14453125 58.23046875 C37.08715256 58.23001053 36.02977386 58.22955231 34.94035339 58.2290802 C32.70867793 58.22606185 30.4770045 58.21818802 28.24536133 58.20581055 C24.81519175 58.18751436 21.38529148 58.18530118 17.95507812 58.18554688 C15.78906015 58.18063314 13.62304401 58.17480545 11.45703125 58.16796875 C10.42479935 58.16685593 9.39256744 58.1657431 8.32905579 58.16459656 C6.90704109 58.15502678 6.90704109 58.15502678 5.45629883 58.14526367 C4.61786942 58.14145187 3.77944 58.13764008 2.91560364 58.13371277 C1 58 1 58 0 57 C-0.09370624 55.22008076 -0.11744271 53.43643261 -0.11352539 51.65405273 C-0.11340454 50.49691772 -0.11328369 49.33978271 -0.11315918 48.14758301 C-0.10804321 46.92196655 -0.10292725 45.6963501 -0.09765625 44.43359375 C-0.09614563 42.754328 -0.09614563 42.754328 -0.09460449 41.0411377 C-0.0893535 36.83991478 -0.07539239 32.63870641 -0.0625 28.4375 C-0.041875 19.053125 -0.02125 9.66875 0 0 Z " fill="#F4F4F4" transform="translate(194,222)"/>
<path d="M0 0 C1.76620297 0.02949885 3.53249138 0.05427861 5.29882812 0.07421875 C7.01051325 0.11025591 8.72211632 0.15048329 10.43359375 0.1953125 C11.60588783 0.22384811 11.60588783 0.22384811 12.80186462 0.25296021 C22.56155242 0.70940824 30.64652497 3.8652036 37.5625 10.875 C39.54136916 13.75378347 41.11436394 16.70073747 42.5625 19.875 C43.0575 20.865 43.0575 20.865 43.5625 21.875 C44.51235406 31.08858434 43.07770745 37.8282553 38.5625 45.875 C37.9025 45.875 37.2425 45.875 36.5625 45.875 C36.335625 46.49375 36.10875 47.1125 35.875 47.75 C34.18320165 50.48910209 32.57005839 50.92524472 29.5625 51.875 C29.5625 52.535 29.5625 53.195 29.5625 53.875 C18.11339678 59.8721493 4.35009254 59.17647706 -8.24682617 59.08081055 C-10.7916027 59.06219568 -13.3360209 59.06030398 -15.88085938 59.06054688 C-17.50000318 59.05564295 -19.11914452 59.04981962 -20.73828125 59.04296875 C-21.49853104 59.04185593 -22.25878082 59.0407431 -23.04206848 59.03959656 C-28.32133002 58.99116998 -28.32133002 58.99116998 -29.4375 57.875 C-29.52605161 55.2087397 -29.55274673 52.56852886 -29.53515625 49.90234375 C-29.5337413 49.10470108 -29.53232635 48.30705841 -29.53086853 47.48524475 C-29.52525316 44.92762565 -29.51269812 42.37009282 -29.5 39.8125 C-29.49498698 38.08268355 -29.49042373 36.35286574 -29.48632812 34.62304688 C-29.47612791 30.37363761 -29.45655568 26.12441584 -29.4375 21.875 C-23.1675 21.875 -16.8975 21.875 -10.4375 21.875 C-10.4375 28.475 -10.4375 35.075 -10.4375 41.875 C-6.77024365 41.76039824 -3.10407107 41.63365387 0.5625 41.5 C1.59246094 41.4690625 2.62242187 41.438125 3.68359375 41.40625 C9.58932729 41.18055318 14.91718223 40.67093735 20.5625 38.875 C23.23954829 35.84877149 23.63366606 30.84448459 23.5625 26.875 C22.12188822 23.6336235 20.28980785 21.14775655 17.5625 18.875 C14.80079856 17.95443285 13.04071145 17.72699851 10.18286133 17.66967773 C9.30217484 17.64973251 8.42148834 17.62978729 7.51411438 17.60923767 C6.56715195 17.59252518 5.62018951 17.57581268 4.64453125 17.55859375 C3.67215012 17.53781265 2.69976898 17.51703156 1.69792175 17.49562073 C-1.40964665 17.43021252 -4.51729985 17.37128071 -7.625 17.3125 C-9.73112858 17.26930649 -11.83724856 17.22569193 -13.94335938 17.18164062 C-19.10798591 17.07454001 -24.27269778 16.97324781 -29.4375 16.875 C-23.20555605 0.57263632 -16.17278521 -0.72576836 0 0 Z " fill="#F2F2F2" transform="translate(288.4375,221.125)"/>
<path d="M0 0 C3.91652632 -0.08714316 7.83280311 -0.14043985 11.75 -0.1875 C12.86117188 -0.21263672 13.97234375 -0.23777344 15.1171875 -0.26367188 C16.18710937 -0.27333984 17.25703125 -0.28300781 18.359375 -0.29296875 C19.34389648 -0.3086792 20.32841797 -0.32438965 21.34277344 -0.34057617 C24.42057091 0.05390448 25.79384078 0.84843897 28 3 C28 3.66 28 4.32 28 5 C28.66 5 29.32 5 30 5 C30 5.66 30 6.32 30 7 C30.66 7 31.32 7 32 7 C33.62109375 8.64453125 33.62109375 8.64453125 35.4375 10.8125 C37.54463676 13.31102718 39.65241398 15.7242056 42 18 C46.18389151 16.37069609 48.94065232 13.28279204 52 10.125 C52.52078125 9.59519531 53.0415625 9.06539062 53.578125 8.51953125 C54.55704497 7.52330714 55.53388015 6.52502645 56.5078125 5.52392578 C57.00023437 5.02103027 57.49265625 4.51813477 58 4 C58.60295898 3.28730957 59.20591797 2.57461914 59.82714844 1.84033203 C62.60529194 -0.51266187 64.04139047 -0.46720446 67.640625 -0.390625 C68.71054687 -0.37773437 69.78046875 -0.36484375 70.8828125 -0.3515625 C71.99398437 -0.31804687 73.10515625 -0.28453125 74.25 -0.25 C75.37664062 -0.23195312 76.50328125 -0.21390625 77.6640625 -0.1953125 C80.44356896 -0.14820222 83.2213534 -0.08243361 86 0 C86 0.66 86 1.32 86 2 C85.34 2 84.68 2 84 2 C84 2.66 84 3.32 84 4 C83.34 4 82.68 4 82 4 C82 4.66 82 5.32 82 6 C81.34 6 80.68 6 80 6 C79.73703125 6.57878906 79.4740625 7.15757812 79.203125 7.75390625 C76.46903017 12.85814173 72.16270884 17.18395229 67.6875 20.8125 C64.85430578 22.89880609 64.85430578 22.89880609 63 26 C62.34 26 61.68 26 61 26 C61.12568817 30.14770976 62.69831157 31.92725389 65.5625 34.6875 C66.20316406 35.26886719 66.84382813 35.85023438 67.50390625 36.44921875 C69 38 69 38 69 40 C69.66 40 70.32 40 71 40 C72.5859375 41.609375 72.5859375 41.609375 74.375 43.75 C76.33757727 46.06903702 78.2588295 48.25219284 80.4375 50.375 C82 52 82 52 82 54 C82.66 54 83.32 54 84 54 C84.33 54.99 84.66 55.98 85 57 C80.83884532 58.38705156 76.92034238 58.18424545 72.5625 58.1875 C71.70333984 58.19974609 70.84417969 58.21199219 69.95898438 58.22460938 C68.7127832 58.22750977 68.7127832 58.22750977 67.44140625 58.23046875 C66.68545166 58.23457764 65.92949707 58.23868652 65.15063477 58.24291992 C62.67592947 57.96339537 61.09413085 57.33965942 59 56 C58.33333333 54.33333333 57.66666667 52.66666667 57 51 C55.08333333 49.83333333 55.08333333 49.83333333 53 49 C51.25 47.5 51.25 47.5 50 46 C50 45.34 50 44.68 50 44 C49.34 44 48.68 44 48 44 C46.29319053 42.37446717 44.62339805 40.70884005 43 39 C42.38125 39.66 41.7625 40.32 41.125 41 C39 43 39 43 37 43 C36.76152344 43.54140625 36.52304687 44.0828125 36.27734375 44.640625 C33.3776415 49.99664995 29.46281877 55.11377389 24 58 C16.61689556 59.65870421 8.2701709 58.96265032 1 57 C2.41920753 53.75904935 4.13308248 51.64164495 6.66015625 49.1796875 C7.37107422 48.47972656 8.08199219 47.77976562 8.81445312 47.05859375 C9.55630859 46.33800781 10.29816406 45.61742187 11.0625 44.875 C12.53473193 43.43712439 14.00489156 41.99712292 15.47265625 40.5546875 C16.12500244 39.92030762 16.77734863 39.28592773 17.44946289 38.63232422 C19.08886 37.06540833 19.08886 37.06540833 20 35 C20.66 35 21.32 35 22 35 C22 34.34 22 33.68 22 33 C22.66 33 23.32 33 24 33 C24 32.34 24 31.68 24 31 C24.66 31 25.32 31 26 31 C26 29.68 26 28.36 26 27 C25.34 27 24.68 27 24 27 C24 26.34 24 25.68 24 25 C23.34 25 22.68 25 22 25 C20.6953125 23.671875 20.6953125 23.671875 19.125 21.75 C15.31340047 17.23434706 11.16752273 13.13057084 6.91259766 9.03808594 C5.57225655 7.72804226 4.28144125 6.36771234 3 5 C3 4.34 3 3.68 3 3 C2.34 3 1.68 3 1 3 C0.67 2.01 0.34 1.02 0 0 Z " fill="#EEEEEE" transform="translate(323,222)"/>
<path d="M0 0 C6.11764325 0.38579732 9.59471052 2.28362815 14.4375 5.9375 C15.07365234 6.39318359 15.70980469 6.84886719 16.36523438 7.31835938 C17.95607611 8.48543231 19.48445076 9.73669197 21 11 C21 11.66 21 12.32 21 13 C21.66 13 22.32 13 23 13 C23 13.66 23 14.32 23 15 C23.66 15 24.32 15 25 15 C35.20183563 24.01060333 46.1997989 39.89585829 50 53 C49.71734635 54.67600591 49.39032609 56.34575261 49 58 C45.60533263 58.23315639 42.21272038 58.37464625 38.8125 58.5 C37.85279297 58.56703125 36.89308594 58.6340625 35.90429688 58.703125 C33.06597308 58.78169452 30.74226421 58.75012229 28 58 C25.62520426 55.61808496 24.40830329 53.01789733 23 50 C22.236875 49.05125 21.47375 48.1025 20.6875 47.125 C19 45 19 45 19 43 C18.34 43 17.68 43 17 43 C15.95244255 41.85423404 14.96190283 40.6560644 14 39.4375 C10.46731374 35.23263242 6.54602943 32.39611424 1.94140625 29.4453125 C1.30074219 28.96835938 0.66007812 28.49140625 0 28 C0 27.34 0 26.68 0 26 C-0.56976563 25.88269531 -1.13953125 25.76539063 -1.7265625 25.64453125 C-4.19269827 24.94536905 -6.13171346 23.92398729 -8.375 22.6875 C-27.68631026 12.87542041 -51.87970663 12.49497698 -72.37109375 18.703125 C-81.11792253 21.82900999 -89.37647218 25.96345401 -96.546875 31.93359375 C-98 33 -98 33 -100 33 C-100.4021875 33.8971875 -100.4021875 33.8971875 -100.8125 34.8125 C-101.99917406 36.99847854 -103.09599113 38.41332594 -105 40 C-105.66 40 -106.32 40 -107 40 C-107.28875 40.598125 -107.5775 41.19625 -107.875 41.8125 C-109 44 -109 44 -111 47 C-111.66 47 -112.32 47 -113 47 C-113.268125 47.71542969 -113.53625 48.43085938 -113.8125 49.16796875 C-115.01731307 52.04128939 -116.41237112 54.63337626 -118 57.3125 C-118.515625 58.19550781 -119.03125 59.07851562 -119.5625 59.98828125 C-120.036875 60.65214844 -120.51125 61.31601563 -121 62 C-121.66 62 -122.32 62 -123 62 C-122.29423751 58.14183173 -120.55200841 55.05058504 -118.6875 51.625 C-118.09324219 50.52414063 -117.49898437 49.42328125 -116.88671875 48.2890625 C-115.03419596 45.05961283 -113.19944743 42.00213237 -111 39 C-110.34 39 -109.68 39 -109 39 C-108.773125 38.443125 -108.54625 37.88625 -108.3125 37.3125 C-105.55957767 32.46211303 -100.98167265 29.05862315 -96.74609375 25.52734375 C-94.92558883 23.98164889 -94.92558883 23.98164889 -93.125 22.03125 C-85.70072085 14.93451258 -75.49154278 11.40166701 -66 8 C-65.18789062 7.65839844 -64.37578125 7.31679687 -63.5390625 6.96484375 C-43.99890926 -0.46041448 -20.31390765 1.74478316 -1.25 9.5 C0.5115542 10.30862305 2.26308137 11.1397337 4 12 C4.77859375 12.37511719 5.5571875 12.75023437 6.359375 13.13671875 C8.25220484 14.06586332 10.12759173 15.03036001 12 16 C13.33239371 16.66854262 14.66549811 17.33567559 16 18 C16 18.66 16 19.32 16 20 C16.69738281 20.21914062 17.39476562 20.43828125 18.11328125 20.6640625 C21.70919007 22.32820434 24.33241932 24.69284757 27.1875 27.375 C27.72052734 27.85710937 28.25355469 28.33921875 28.80273438 28.8359375 C31.50503178 31.33768704 33.66118914 33.53387617 35 37 C35 32.27364536 31.90611097 29.98377763 28.8125 26.625 C25.64471745 23.66840296 22.28061115 21.11673023 18.79296875 18.55078125 C18.20128906 18.03902344 17.60960937 17.52726562 17 17 C17 16.34 17 15.68 17 15 C16.40703125 14.88269531 15.8140625 14.76539063 15.203125 14.64453125 C12.33578081 13.80568056 10.31875772 12.11190923 7.94921875 10.34375 C4.80857171 8.17865464 1.44348525 6.63112459 -2 5 C-1.34 3.35 -0.68 1.7 0 0 Z M37 37 C37.33 37.99 37.66 38.98 38 40 C38 39.01 38 38.02 38 37 C37.67 37 37.34 37 37 37 Z M40 41 C41 43 41 43 41 43 Z M42 44 C43 46 43 46 43 46 Z M44 47 C45 49 45 49 45 49 Z M46 51 C47 53 47 53 47 53 Z " fill="#ECECEC" transform="translate(255,155)"/>
<path d="M0 0 C4.08628687 1.36209562 4.61408631 3.30914115 6.75 7 C12.02457894 16.83696183 12.02457894 16.83696183 20 24 C20 24.66 20 25.32 20 26 C20.58007812 26.26425781 21.16015625 26.52851563 21.7578125 26.80078125 C24.09178768 28.04909202 25.86107604 29.47527282 27.875 31.1875 C43.89063068 43.76933752 63.0410528 47.61070492 83 47 C83.95777344 46.97164063 84.91554688 46.94328125 85.90234375 46.9140625 C97.46871185 46.27570841 107.40765471 42.65858914 117.5390625 37.171875 C120 36 120 36 123 36 C123 35.34 123 34.68 123 34 C128.41176471 30 128.41176471 30 131 30 C131 29.34 131 28.68 131 28 C132.64453125 26.4140625 132.64453125 26.4140625 134.8125 24.625 C137.06250857 22.76433718 138.90350285 21.13127297 140.63671875 18.7734375 C141.31154297 17.89558594 141.31154297 17.89558594 142 17 C142.66 17 143.32 17 144 17 C144.3403125 16.01 144.3403125 16.01 144.6875 15 C145.120625 14.01 145.55375 13.02 146 12 C146.27779297 11.33162109 146.55558594 10.66324219 146.84179688 9.97460938 C148.02679206 7.60244471 149.10063958 5.86189926 151 4 C154.64339719 3.0057677 158.07010356 3.23861032 161.8125 3.5 C162.79154297 3.53609375 163.77058594 3.5721875 164.77929688 3.609375 C167.19022119 3.70345985 169.59308437 3.83468549 172 4 C172.5689764 15.19793981 166.26694664 23.35611709 160.1875 32.3125 C159.80279541 32.88186279 159.41809082 33.45122559 159.02172852 34.0378418 C158.06867021 35.39817916 157.04044295 36.70527364 156 38 C155.34 38 154.68 38 154 38 C153.7628125 38.56203125 153.525625 39.1240625 153.28125 39.703125 C151.71052303 42.51894042 149.78528536 44.47955416 147.5 46.75 C146.7059375 47.54921875 145.911875 48.3484375 145.09375 49.171875 C143 51 143 51 141 51 C141 51.66 141 52.32 141 53 C138.59984651 55.22559687 136.06420344 56.84892532 133 58 C130.12560451 57.52720224 128.5452182 56.537736 126 55 C136.10526316 47 136.10526316 47 140 47 C140 46.34 140 45.68 140 45 C141.43763461 43.80247138 142.92779115 42.66778152 144.4375 41.5625 C150.23283648 37.07338772 154.57851008 31.80988048 159 26 C157.98691139 27.01308861 156.99156737 28.04381623 155.99609375 29.07421875 C138.51617976 46.92774922 115.63668024 58.60072829 90.28051758 59.49365234 C81.30851085 59.52086244 72.71620605 58.01071277 64 56 C63.02546875 55.79503906 62.0509375 55.59007812 61.046875 55.37890625 C41.08698811 50.68074574 19.91991516 35.66089774 8.92089844 18.29638672 C7.09529391 15.2497195 5.35987058 12.15954147 3.6640625 9.0390625 C2.03171474 5.95340178 2.03171474 5.95340178 0 3 C0 2.01 0 1.02 0 0 Z M167 13 C168 15 168 15 168 15 Z M165 16 C166 18 166 18 166 18 Z M163 19 C164 21 164 21 164 21 Z M161 22 C161 25 161 25 161 25 Z " fill="#EBEBEB" transform="translate(132,283)"/>
<path d="M0 0 C6.11764325 0.38579732 9.59471052 2.28362815 14.4375 5.9375 C15.07365234 6.39318359 15.70980469 6.84886719 16.36523438 7.31835938 C17.95607611 8.48543231 19.48445076 9.73669197 21 11 C21 11.66 21 12.32 21 13 C21.66 13 22.32 13 23 13 C23 13.66 23 14.32 23 15 C23.66 15 24.32 15 25 15 C35.20183563 24.01060333 46.1997989 39.89585829 50 53 C49.63671875 55.859375 49.63671875 55.859375 49 58 C47.68 57.67 46.36 57.34 45 57 C45.66 57 46.32 57 47 57 C46.65555119 54.52733235 46.65555119 54.52733235 46 52 C45.01 51.505 45.01 51.505 44 51 C43.67 50.01 43.34 49.02 43 48 C38.80228896 35.66922383 29.05388168 26.10000104 18.79296875 18.55078125 C18.20128906 18.03902344 17.60960937 17.52726562 17 17 C17 16.34 17 15.68 17 15 C16.40703125 14.88269531 15.8140625 14.76539063 15.203125 14.64453125 C12.33578081 13.80568056 10.31875772 12.11190923 7.94921875 10.34375 C4.80857171 8.17865464 1.44348525 6.63112459 -2 5 C-1.34 3.35 -0.68 1.7 0 0 Z " fill="#D8D8D8" transform="translate(255,155)"/>
<path d="M0 0 C0.66 0.33 1.32 0.66 2 1 C2.495 2.485 2.495 2.485 3 4 C4.98 4 6.96 4 9 4 C6.62201448 5.20076496 4.23198038 6.36698475 1.828125 7.515625 C-4.37969013 10.52465329 -10.21201501 13.49174293 -15.546875 17.93359375 C-17 19 -17 19 -19 19 C-19.268125 19.598125 -19.53625 20.19625 -19.8125 20.8125 C-20.99917406 22.99847854 -22.09599113 24.41332594 -24 26 C-24.66 26 -25.32 26 -26 26 C-26.433125 26.8971875 -26.433125 26.8971875 -26.875 27.8125 C-28 30 -28 30 -30 33 C-30.66 33 -31.32 33 -32 33 C-32.268125 33.71542969 -32.53625 34.43085938 -32.8125 35.16796875 C-34.01731307 38.04128939 -35.41237112 40.63337626 -37 43.3125 C-37.515625 44.19550781 -38.03125 45.07851562 -38.5625 45.98828125 C-39.036875 46.65214844 -39.51125 47.31601563 -40 48 C-40.66 48 -41.32 48 -42 48 C-41.29423751 44.14183173 -39.55200841 41.05058504 -37.6875 37.625 C-37.09324219 36.52414063 -36.49898437 35.42328125 -35.88671875 34.2890625 C-34.03419596 31.05961283 -32.19944743 28.00213237 -30 25 C-29.34 25 -28.68 25 -28 25 C-27.773125 24.443125 -27.54625 23.88625 -27.3125 23.3125 C-24.55957767 18.46211303 -19.98167265 15.05862315 -15.74609375 11.52734375 C-13.9240816 9.97869438 -13.9240816 9.97869438 -12.10546875 8.0234375 C-9.8417297 5.84789608 -7.56266889 4.30411278 -4.875 2.6875 C-4.00617188 2.15511719 -3.13734375 1.62273437 -2.2421875 1.07421875 C-1.50226563 0.71972656 -0.76234375 0.36523438 0 0 Z " fill="#D1D1D1" transform="translate(174,169)"/>
<path d="M0 0 C0.66 0.33 1.32 0.66 2 1 C0.8158671 10.24431026 -4.60653075 17.62497989 -9.75 25.1875 C-10.13865234 25.76443604 -10.52730469 26.34137207 -10.92773438 26.93579102 C-11.89819212 28.32944794 -12.94323799 29.6705934 -14 31 C-14.66 31 -15.32 31 -16 31 C-16.2371875 31.56203125 -16.474375 32.1240625 -16.71875 32.703125 C-18.28947697 35.51894042 -20.21471464 37.47955416 -22.5 39.75 C-23.2940625 40.54921875 -24.088125 41.3484375 -24.90625 42.171875 C-27 44 -27 44 -29 44 C-29 44.66 -29 45.32 -29 46 C-31.40015349 48.22559687 -33.93579656 49.84892532 -37 51 C-39.87439549 50.52720224 -41.4547818 49.537736 -44 48 C-33.89473684 40 -33.89473684 40 -30 40 C-30 39.34 -30 38.68 -30 38 C-28.60279837 36.84526286 -27.15412111 35.75268205 -25.6875 34.6875 C-21.29492838 31.26966689 -17.6818878 27.6203568 -14.125 23.375 C-13.67342529 22.83705811 -13.22185059 22.29911621 -12.7565918 21.74487305 C-7.17255988 14.99596858 -7.17255988 14.99596858 -4 7 C-3.01971384 5.65210653 -2.02028865 4.31787285 -1 3 C-0.67 2.01 -0.34 1.02 0 0 Z " fill="#D4D4D4" transform="translate(302,290)"/>
<path d="M0 0 C4.08628687 1.36209562 4.61408631 3.30914115 6.75 7 C12.02457894 16.83696183 12.02457894 16.83696183 20 24 C20 24.66 20 25.32 20 26 C20.84304687 26.38285156 20.84304687 26.38285156 21.703125 26.7734375 C24.29386482 28.15692781 26.45107845 29.79938583 28.75 31.625 C29.54921875 32.25664062 30.3484375 32.88828125 31.171875 33.5390625 C32.07679688 34.26222656 32.07679688 34.26222656 33 35 C31.515 35.495 31.515 35.495 30 36 C29.34 36.66 28.68 37.32 28 38 C17.79441511 29.64738443 9.80433818 20.56900554 3.59375 8.96875 C2.02727657 5.9378105 2.02727657 5.9378105 0 3 C0 2.01 0 1.02 0 0 Z " fill="#B9B9B9" transform="translate(132,283)"/>
<path d="M0 0 C-0.78375 0.2475 -1.5675 0.495 -2.375 0.75 C-5.42295608 2.20140766 -5.72536664 2.99550707 -7 6 C-8.5 7.75 -8.5 7.75 -10 9 C-10.66 9 -11.32 9 -12 9 C-12.433125 9.8971875 -12.433125 9.8971875 -12.875 10.8125 C-14 13 -14 13 -16 16 C-16.66 16 -17.32 16 -18 16 C-18.268125 16.71542969 -18.53625 17.43085938 -18.8125 18.16796875 C-20.01731307 21.04128939 -21.41237112 23.63337626 -23 26.3125 C-23.515625 27.19550781 -24.03125 28.07851562 -24.5625 28.98828125 C-25.036875 29.65214844 -25.51125 30.31601563 -26 31 C-26.66 31 -27.32 31 -28 31 C-27.29423751 27.14183173 -25.55200841 24.05058504 -23.6875 20.625 C-23.09324219 19.52414063 -22.49898437 18.42328125 -21.88671875 17.2890625 C-20.03419596 14.05961283 -18.19944743 11.00213237 -16 8 C-15.34 8 -14.68 8 -14 8 C-13.7525 7.4225 -13.505 6.845 -13.25 6.25 C-11.45208612 3.01375501 -9.48251605 0.60227214 -6 -0.8125 C-3.76280864 -1.02223669 -2.12880618 -0.68425913 0 0 Z " fill="#AAAAAA" transform="translate(160,186)"/>
<path d="M0 0 C0.66 0.33 1.32 0.66 2 1 C0.62160255 11.85289949 -6.53167105 20.51237039 -13 29 C-13.99 28.34 -14.98 27.68 -16 27 C-13.83103273 22.06945146 -10.28948665 18.09054291 -6.99609375 13.875 C-5.23503445 11.3385232 -4.53063087 9.94139827 -4 7 C-3.01971384 5.65210653 -2.02028865 4.31787285 -1 3 C-0.67 2.01 -0.34 1.02 0 0 Z " fill="#A4A4A4" transform="translate(302,290)"/>
<path d="M0 0 C2.71368001 0.35550393 3.81382639 0.80107477 5.7109375 2.828125 C17.48124665 19.95862188 17.48124665 19.95862188 16.65625 26.88671875 C16.4396875 27.58410156 16.223125 28.28148437 16 29 C14.68 28.67 13.36 28.34 12 28 C12.66 28 13.32 28 14 28 C13.65555119 25.52733235 13.65555119 25.52733235 13 23 C12.34 22.67 11.68 22.34 11 22 C10.67 21.01 10.34 20.02 10 19 C7.66280942 12.26339187 3.57944863 7.40614244 -1 2 C-0.67 1.34 -0.34 0.68 0 0 Z " fill="#919191" transform="translate(288,184)"/>
<path d="M0 0 C5.23272633 1.63958758 10.15196636 3.38952035 15 6 C14.67 8.31 14.34 10.62 14 13 C10.48425523 11.6909461 7.39870544 10.16426225 4.25 8.125 C3.08210937 7.38636719 3.08210937 7.38636719 1.890625 6.6328125 C-0.24694528 4.78672908 -0.74370656 3.78427869 -1 1 C-0.67 0.67 -0.34 0.34 0 0 Z " fill="#CDCDCD" transform="translate(162,318)"/>
<path d="M0 0 C0.33 0.66 0.66 1.32 1 2 C1.66 2 2.32 2 3 2 C3 2.66 3 3.32 3 4 C3.66 4 4.32 4 5 4 C6.62109375 5.609375 6.62109375 5.609375 8.4375 7.75 C9.03433594 8.44609375 9.63117188 9.1421875 10.24609375 9.859375 C15 15.66146993 15 15.66146993 15 18 C14.01 18.33 13.02 18.66 12 19 C11.34 18.319375 10.68 17.63875 10 16.9375 C6.50531766 13.43274653 2.74869221 10.22778212 -1 7 C-0.34 6.67 0.32 6.34 1 6 C0.67 4.02 0.34 2.04 0 0 Z " fill="#D4D4D4" transform="translate(275,166)"/>
<path d="M0 0 C0 1.65 0 3.3 0 5 C-0.66 5 -1.32 5 -2 5 C-2.24492187 5.57234375 -2.48984375 6.1446875 -2.7421875 6.734375 C-4.21110099 9.38024402 -5.95348244 11.14853139 -8.125 13.25 C-8.84945313 13.95640625 -9.57390625 14.6628125 -10.3203125 15.390625 C-10.87460937 15.92171875 -11.42890625 16.4528125 -12 17 C-13.32 15.35 -14.64 13.7 -16 12 C-12.66666667 9.33333333 -9.33333333 6.66666667 -6 4 C-5.08605469 3.25234375 -4.17210937 2.5046875 -3.23046875 1.734375 C-1 0 -1 0 0 0 Z " fill="#BEBEBE" transform="translate(288,316)"/>
<path d="M0 0 C3.96397361 1.32132454 4.94791197 3.75024982 6.9375 7.1875 C9.52189059 11.54461322 12.15752311 15.80941326 15 20 C14.34 20 13.68 20 13 20 C12.67 20.66 12.34 21.32 12 22 C0 5.4351585 0 5.4351585 0 0 Z " fill="#9B9B9B" transform="translate(132,283)"/>
<path d="M0 0 C1.09658936 3.28976808 0.79953138 4.71303767 0 8 C-0.66 8 -1.32 8 -2 8 C-2.268125 8.71542969 -2.53625 9.43085938 -2.8125 10.16796875 C-4.01731307 13.04128939 -5.41237112 15.63337626 -7 18.3125 C-7.515625 19.19550781 -8.03125 20.07851562 -8.5625 20.98828125 C-9.036875 21.65214844 -9.51125 22.31601563 -10 23 C-10.66 23 -11.32 23 -12 23 C-11.29423751 19.14183173 -9.55200841 16.05058504 -7.6875 12.625 C-7.09324219 11.52414063 -6.49898437 10.42328125 -5.88671875 9.2890625 C-4.04580275 6.07984662 -2.08780521 3.05105309 0 0 Z " fill="#8D8D8D" transform="translate(144,194)"/>
<path d="M0 0 C0.33 0 0.66 0 1 0 C1 1.65 1 3.3 1 5 C15.19 5 29.38 5 44 5 C43 9 43 9 42 11 C41.34 10.67 40.68 10.34 40 10 C40.33 8.68 40.66 7.36 41 6 C27.47 6 13.94 6 0 6 C0 4.02 0 2.04 0 0 Z " fill="#D7D7D7" transform="translate(212,258)"/>
<path d="M0 0 C0 1.66666667 0 3.33333333 0 5 C0.66 5.33 1.32 5.66 2 6 C-0.35968744 8.09749995 -1.54616994 8.96905704 -4.75 9.1875 C-5.4925 9.125625 -6.235 9.06375 -7 9 C-7.33 9.66 -7.66 10.32 -8 11 C-8.99 10.67 -9.98 10.34 -11 10 C-10.45730469 9.52949219 -9.91460937 9.05898437 -9.35546875 8.57421875 C-8.64003906 7.95160156 -7.92460937 7.32898438 -7.1875 6.6875 C-6.47980469 6.07261719 -5.77210938 5.45773438 -5.04296875 4.82421875 C-3.29863261 3.26665665 -1.63221959 1.67341125 0 0 Z " fill="#BEBEBE" transform="translate(163,176)"/>
<path d="M0 0 C2.64836661 3.12988781 4.0048268 6.0193072 5 10 C4.625 12.375 4.625 12.375 4 14 C2.68 13.67 1.36 13.34 0 13 C0.66 13 1.32 13 2 13 C1.65555119 10.52733235 1.65555119 10.52733235 1 8 C0.34 7.67 -0.32 7.34 -1 7 C-2 4 -2 4 -2 1 C-1.34 0.67 -0.68 0.34 0 0 Z " fill="#7F7F7F" transform="translate(300,199)"/>
<path d="M0 0 C0.66 0.33 1.32 0.66 2 1 C1.5205537 5.21912747 0.83374881 7.79663178 -2 11 C-2.99 10.01 -3.98 9.02 -5 8 C-4.34 7.34 -3.68 6.68 -3 6 C-1.96838392 4.01612292 -0.96476382 2.01723344 0 0 Z " fill="#6C6C6C" transform="translate(302,290)"/>
<path d="M0 0 C1.9375 0.625 1.9375 0.625 4 2 C4.75 5.125 4.75 5.125 5 8 C4.01 7.67 3.02 7.34 2 7 C2 6.34 2 5.68 2 5 C1.01 5 0.02 5 -1 5 C-0.67 3.35 -0.34 1.7 0 0 Z " fill="#E8E8E8" transform="translate(271,164)"/>
<path d="M0 0 C1 3 1 3 0.22265625 4.82421875 C-0.8515625 6.54947917 -1.92578125 8.27473958 -3 10 C-3.99 9.34 -4.98 8.68 -6 8 C-4.02 5.36 -2.04 2.72 0 0 Z " fill="#9C9C9C" transform="translate(299,299)"/>
<path d="M0 0 C2 2 2 2 2 5 C1.34 5 0.68 5 0 5 C-0.66 6.32 -1.32 7.64 -2 9 C-2.99 8.67 -3.98 8.34 -5 8 C-3.35 5.36 -1.7 2.72 0 0 Z " fill="#B1B1B1" transform="translate(148,190)"/>
<path d="M0 0 C0.33 0.66 0.66 1.32 1 2 C1.66 2 2.32 2 3 2 C3 2.66 3 3.32 3 4 C3.66 4 4.32 4 5 4 C5 4.66 5 5.32 5 6 C4.01 6 3.02 6 2 6 C2.99 6.99 3.98 7.98 5 9 C4.67 9.66 4.34 10.32 4 11 C2.35 9.35 0.7 7.7 -1 6 C-0.34 6 0.32 6 1 6 C0.67 4.02 0.34 2.04 0 0 Z " fill="#9F9F9F" transform="translate(275,166)"/>
<path d="M0 0 C1.65 0.33 3.3 0.66 5 1 C5 2.65 5 4.3 5 6 C2.525 5.01 2.525 5.01 0 4 C0 2.68 0 1.36 0 0 Z " fill="#DBDBDB" transform="translate(171,325)"/>
<path d="M0 0 C0.66 0.99 1.32 1.98 2 3 C0.68 5.31 -0.64 7.62 -2 10 C-2.66 10 -3.32 10 -4 10 C-3.29445932 6.33118845 -1.72264494 3.29549466 0 0 Z " fill="#737373" transform="translate(136,207)"/>
<path d="M0 0 C-0.33 0.99 -0.66 1.98 -1 3 C-2.65 3 -4.3 3 -6 3 C-6.33 3.66 -6.66 4.32 -7 5 C-7.99 4.67 -8.98 4.34 -10 4 C-6.83527002 0.53386716 -4.79371499 0 0 0 Z " fill="#D9D9D9" transform="translate(162,182)"/>
<path d="M0 0 C3 1 3 1 4.75 3.4375 C5.36875 4.7059375 5.36875 4.7059375 6 6 C5.67 6.66 5.34 7.32 5 8 C4.34 8 3.68 8 3 8 C0.95830515 5.09451118 0 3.59857954 0 0 Z " fill="#777777" transform="translate(132,283)"/>
<path d="M0 0 C2.0625 0.4375 2.0625 0.4375 4 1 C4.33 2.65 4.66 4.3 5 6 C1.83884224 4.63016497 1.0072908 4.0109362 -1 1 C-0.67 0.67 -0.34 0.34 0 0 Z " fill="#A7A7A7" transform="translate(288,184)"/>
<path d="M0 0 C0.33 1.32 0.66 2.64 1 4 C-0.8125 5.5625 -0.8125 5.5625 -3 7 C-3.99 6.67 -4.98 6.34 -6 6 C-4.02 4.02 -2.04 2.04 0 0 Z " fill="#A5A5A5" transform="translate(373,234)"/>
<path d="M0 0 C0.99 0.33 1.98 0.66 3 1 C3.33 2.98 3.66 4.96 4 7 C2 5.75 2 5.75 0 4 C0 2.68 0 1.36 0 0 Z " fill="#A5A5A5" transform="translate(296,194)"/>
<path d="M0 0 C0.33 0.66 0.66 1.32 1 2 C-0.375 4 -0.375 4 -2 6 C-2.66 6 -3.32 6 -4 6 C-4 6.66 -4 7.32 -4 8 C-4.66 7.67 -5.32 7.34 -6 7 C-4.02 4.69 -2.04 2.38 0 0 Z " fill="#B2B2B2" transform="translate(121,173)"/>
<path d="M0 0 C2.97 0.99 5.94 1.98 9 3 C7.02 3.99 7.02 3.99 5 5 C2 3 2 3 0 0 Z " fill="#B3B3B3" transform="translate(236,144)"/>
</svg>
